<svg width="109" height="24" viewBox="0 0 109 24" fill="none" xmlns="http://www.w3.org/2000/svg">
<g clip-path="url(#clip0_6_2)">
<path d="M2.67987 22V1.63636H11.1713C12.696 1.63636 13.972 1.8518 14.9995 2.28267C16.0336 2.71354 16.8091 3.31676 17.3262 4.09233C17.8498 4.8679 18.1117 5.7661 18.1117 6.78693C18.1117 7.5625 17.9493 8.25521 17.6245 8.86506C17.2997 9.46828 16.8522 9.96875 16.2821 10.3665C15.7121 10.7642 15.0525 11.0426 14.3034 11.2017V11.4006C15.1254 11.4403 15.8844 11.6624 16.5804 12.0668C17.2831 12.4711 17.8465 13.0346 18.2708 13.7571C18.695 14.473 18.9071 15.3215 18.9071 16.3026C18.9071 17.3963 18.6287 18.3741 18.0719 19.2358C17.5151 20.0909 16.7097 20.767 15.6557 21.2642C14.6017 21.7547 13.3224 22 11.8176 22H2.67987ZM7.60174 18.0327H10.6444C11.7116 18.0327 12.4971 17.8305 13.0009 17.4261C13.5113 17.0218 13.7665 16.4583 13.7665 15.7358C13.7665 15.2121 13.6439 14.7614 13.3986 14.3835C13.1534 13.9991 12.8053 13.7041 12.3546 13.4986C11.9038 13.2865 11.3636 13.1804 10.7338 13.1804H7.60174V18.0327ZM7.60174 10.0085H10.3262C10.8631 10.0085 11.3404 9.91903 11.758 9.74006C12.1756 9.56108 12.5004 9.30256 12.7324 8.96449C12.9711 8.62642 13.0904 8.21875 13.0904 7.74148C13.0904 7.05871 12.8484 6.52178 12.3645 6.13068C11.8806 5.73958 11.2277 5.54403 10.4057 5.54403H7.60174V10.0085ZM21.2736 22V1.63636H29.6855C31.2102 1.63636 32.526 1.91146 33.633 2.46165C34.7466 3.00521 35.6051 3.7874 36.2083 4.80824C36.8115 5.82244 37.1131 7.02557 37.1131 8.41761C37.1131 9.82955 36.8049 11.0294 36.1884 12.017C35.5719 12.9981 34.6969 13.7472 33.5634 14.2642C32.4299 14.7746 31.0875 15.0298 29.5364 15.0298H24.2168V11.152H28.6216C29.3641 11.152 29.9838 11.0559 30.481 10.8636C30.9848 10.6648 31.3659 10.3665 31.6245 9.96875C31.883 9.56439 32.0123 9.04735 32.0123 8.41761C32.0123 7.78788 31.883 7.26752 31.6245 6.85653C31.3659 6.43892 30.9848 6.12737 30.481 5.92188C29.9772 5.70975 29.3574 5.60369 28.6216 5.60369H26.1955V22H21.2736ZM32.7381 12.6932L37.8091 22H32.4398L27.4682 12.6932H32.7381ZM44.7346 1.63636V22H39.8127V1.63636H44.7346ZM67.0446 11.8182C67.0446 14.0587 66.6137 15.9579 65.752 17.5156C64.8902 19.0734 63.7235 20.2566 62.252 21.0653C60.787 21.8741 59.1431 22.2784 57.3201 22.2784C55.4906 22.2784 53.8433 21.8707 52.3784 21.0554C50.9134 20.2401 49.7501 19.0568 48.8883 17.5057C48.0332 15.9479 47.6056 14.0521 47.6056 11.8182C47.6056 9.57765 48.0332 7.6785 48.8883 6.12074C49.7501 4.56297 50.9134 3.37973 52.3784 2.57102C53.8433 1.76231 55.4906 1.35795 57.3201 1.35795C59.1431 1.35795 60.787 1.76231 62.252 2.57102C63.7235 3.37973 64.8902 4.56297 65.752 6.12074C66.6137 7.6785 67.0446 9.57765 67.0446 11.8182ZM62.0133 11.8182C62.0133 10.4924 61.8244 9.37216 61.4466 8.45739C61.0753 7.54261 60.5384 6.8499 59.8358 6.37926C59.1397 5.90862 58.3012 5.67329 57.3201 5.67329C56.3457 5.67329 55.5072 5.90862 54.8045 6.37926C54.1019 6.8499 53.5616 7.54261 53.1838 8.45739C52.8126 9.37216 52.627 10.4924 52.627 11.8182C52.627 13.1439 52.8126 14.2642 53.1838 15.179C53.5616 16.0937 54.1019 16.7865 54.8045 17.2571C55.5072 17.7277 56.3457 17.9631 57.3201 17.9631C58.3012 17.9631 59.1397 17.7277 59.8358 17.2571C60.5384 16.7865 61.0753 16.0937 61.4466 15.179C61.8244 14.2642 62.0133 13.1439 62.0133 11.8182ZM87.2491 1.63636V22H83.073L74.9693 10.2472H74.84V22H69.9181V1.63636H74.1539L82.1681 13.3693H82.3372V1.63636H87.2491ZM90.2743 22V19.196L100.168 5.63352H90.2843V1.63636H106.392V4.44034L96.4988 18.0028H106.382V22H90.2743Z" fill="url(#paint0_linear_6_2)"/>
</g>
<defs>
<linearGradient id="paint0_linear_6_2" x1="1" y1="-1.5" x2="108" y2="29" gradientUnits="userSpaceOnUse">
<stop stop-color="#1800AE"/>
<stop offset="1" stop-color="#8BD5FF"/>
</linearGradient>
<clipPath id="clip0_6_2">
<rect width="109" height="24" fill="white"/>
</clipPath>
</defs>
</svg>
