<?xml version="1.0" standalone="no"?>
<!DOCTYPE svg PUBLIC "-//W3C//DTD SVG 20010904//EN"
 "http://www.w3.org/TR/2001/REC-SVG-20010904/DTD/svg10.dtd">
<svg version="1.0" xmlns="http://www.w3.org/2000/svg"
 width="300.000000pt" height="300.000000pt" viewBox="0 0 300.000000 300.000000"
 preserveAspectRatio="xMidYMid meet">
<metadata>
Created by potrace 1.14, written by Peter Selinger 2001-2017
</metadata>
<g transform="translate(0.000000,300.000000) scale(0.100000,-0.100000)"
fill="#000000" stroke="none">
<path d="M1254 2565 c-271 -49 -415 -159 -491 -376 -31 -89 -42 -242 -23 -332
17 -85 83 -209 140 -265 98 -97 227 -140 513 -172 99 -11 207 -27 238 -35 183
-48 261 -129 261 -274 0 -91 -22 -139 -93 -205 -66 -62 -133 -91 -241 -106
-76 -11 -174 0 -236 25 -68 29 -158 102 -197 162 -59 88 -84 111 -138 129 -61
20 -149 14 -186 -14 -64 -47 -94 -136 -71 -209 31 -98 146 -245 243 -312 195
-134 494 -173 772 -101 44 12 131 46 193 76 97 47 126 67 191 132 89 88 132
165 156 277 19 90 19 233 0 313 -61 259 -299 421 -662 452 -328 28 -443 63
-488 150 -41 78 -5 215 72 279 78 64 231 97 375 81 145 -17 203 -41 313 -128
89 -72 129 -92 183 -92 127 0 180 112 116 247 -71 149 -248 255 -498 298 -107
18 -342 19 -442 0z"/>
</g>
</svg>
